<svg data-v-423bf9ae="" xmlns="http://www.w3.org/2000/svg" viewBox="0 0 322.41426740373885 163" class="iconAbove"><!----><!----><!----><g data-v-423bf9ae="" id="359cdec2-e65b-426b-89ee-8de4e80b7ca2" fill="white" transform="matrix(4.285714149475098,0,0,4.285714149475098,-3.428558588027954,103)"><path d="M9.25 10.26L8.41 1.86L7.70 1.86L5.03 5.56L2.34 1.86L1.39 1.86L1.55 2.66L0.80 10.26L1.57 10.26L2.27 2.97L4.79 6.47L5.25 6.47L7.77 2.97L8.47 10.26ZM17.42 10.26L17.42 9.56C17.22 9.63 17.00 9.70 16.76 9.70C16.44 9.70 16.30 9.52 16.30 9.23L16.30 3.72L15.53 3.72L15.53 9.41C15.06 9.59 14.53 9.70 13.96 9.70C12.70 9.70 12.11 9.17 12.11 8.02L12.11 3.72L11.34 3.72L11.34 8.02C11.34 9.58 12.28 10.40 13.96 10.40C14.60 10.40 15.23 10.26 15.76 10.04C15.95 10.28 16.27 10.40 16.55 10.40C16.87 10.40 17.18 10.33 17.42 10.26ZM21 10.26L21 9.95L19.95 9.60L19.95 0L19.18 0L19.18 10.26ZM26.05 10.29L26.05 9.59C25.86 9.66 25.55 9.70 25.35 9.70C24.23 9.70 23.86 9.24 23.86 8.26L23.86 4.41L26.05 4.41L26.05 3.72L23.86 3.72L23.86 1.82L23.09 1.93L23.09 3.72L21.69 3.72L21.69 4.41L23.09 4.41L23.09 8.26C23.09 9.63 23.81 10.40 25.35 10.40C25.55 10.40 25.86 10.36 26.05 10.29ZM28.88 1.40C28.88 1.04 28.59 0.73 28.22 0.73C27.86 0.73 27.55 1.04 27.55 1.40C27.55 1.76 27.86 2.06 28.22 2.06C28.59 2.06 28.88 1.76 28.88 1.40ZM29.65 10.26L29.65 9.95L28.60 9.60L28.60 3.72L27.83 3.72L27.83 10.26ZM35.57 8.48C35.57 7.28 34.68 6.57 33.14 6.57C32.02 6.57 31.56 6.10 31.56 5.39C31.56 4.86 31.98 4.28 33.38 4.28C33.87 4.28 34.34 4.35 34.79 4.47L35.13 5.46L35.43 5.46L35.43 3.95C34.82 3.75 34.10 3.58 33.38 3.58C31.50 3.58 30.76 4.48 30.76 5.42C30.76 6.58 31.65 7.31 33.14 7.31C34.31 7.31 34.78 7.77 34.78 8.51C34.78 9.11 34.34 9.70 32.86 9.70C32.13 9.70 31.46 9.58 30.72 9.32L30.72 10.02C31.46 10.28 32.13 10.40 32.86 10.40C34.82 10.40 35.57 9.52 35.57 8.48ZM38.53 1.40C38.53 1.04 38.23 0.73 37.87 0.73C37.51 0.73 37.20 1.04 37.20 1.40C37.20 1.76 37.51 2.06 37.87 2.06C38.23 2.06 38.53 1.76 38.53 1.40ZM39.30 10.26L39.30 9.95L38.25 9.60L38.25 3.72L37.48 3.72L37.48 10.26ZM44.35 10.29L44.35 9.59C44.16 9.66 43.85 9.70 43.65 9.70C42.53 9.70 42.15 9.24 42.15 8.26L42.15 4.41L44.35 4.41L44.35 3.72L42.15 3.72L42.15 1.82L41.38 1.93L41.38 3.72L39.98 3.72L39.98 4.41L41.38 4.41L41.38 8.26C41.38 9.63 42.11 10.40 43.65 10.40C43.85 10.40 44.16 10.36 44.35 10.29ZM51.41 7C51.41 4.79 50.25 3.58 48.47 3.58C46.69 3.58 45.49 4.79 45.49 7C45.49 9.28 46.83 10.40 48.93 10.40C49.52 10.40 50.36 10.26 50.89 10.08L50.89 9.38C50.36 9.56 49.52 9.70 48.93 9.70C47.38 9.70 46.37 8.96 46.28 7.22L51.41 7.22C51.41 7.15 51.41 7.07 51.41 7ZM50.64 6.55L46.30 6.55C46.44 5.07 47.26 4.28 48.47 4.28C49.60 4.28 50.50 5.07 50.64 6.55ZM61.32 10.26L60.48 1.86L59.77 1.86L57.09 5.56L54.40 1.86L53.45 1.86L53.62 2.66L52.86 10.26L53.63 10.26L54.33 2.97L56.85 6.47L57.32 6.47L59.84 2.97L60.54 10.26ZM68.95 10.26L68.95 9.56C68.75 9.63 68.53 9.70 68.29 9.70C67.97 9.70 67.83 9.52 67.83 9.23L67.83 5.96C67.83 4.41 66.89 3.58 65.21 3.58C64.71 3.58 64.02 3.71 63.43 3.89L63.43 5.46L63.74 5.46L64.09 4.42C64.48 4.34 64.89 4.28 65.21 4.28C66.47 4.28 67.06 4.82 67.06 5.96L67.06 6.55L65.04 6.55C63.49 6.55 62.76 7.32 62.76 8.34C62.76 9.53 63.70 10.40 65.49 10.40C66.14 10.40 66.77 10.26 67.30 10.04C67.48 10.28 67.80 10.40 68.08 10.40C68.40 10.40 68.71 10.33 68.95 10.26ZM67.06 9.41C66.60 9.59 66.07 9.72 65.49 9.72C64.19 9.72 63.55 9.18 63.55 8.34C63.55 7.67 63.98 7.22 65.04 7.22L67.06 7.22ZM76.03 7C76.03 4.79 74.83 3.58 73.05 3.58C72.34 3.58 71.37 3.78 70.66 3.98L70.46 4.03L70.71 4.80L70.71 14L71.48 14L71.48 10.16C71.95 10.32 72.56 10.40 73.05 10.40C74.83 10.40 76.03 9.20 76.03 7ZM75.25 7C75.25 8.76 74.37 9.70 73.05 9.70C72.53 9.70 72.00 9.62 71.48 9.48L71.48 4.51C72.00 4.37 72.53 4.28 73.05 4.28C74.37 4.28 75.25 5.22 75.25 7Z"></path></g><!----><g data-v-423bf9ae="" id="e94ac70f-42f0-4d8d-be22-cbd951d6ea5d" transform="matrix(1.5151515007019043,0,0,1.5151515007019043,91.01641082763672,-27.478788375854492)" stroke="none" fill="white"><path d="M58.6 37.9c1.7 0 3-1.3 3-3s-1.3-3-3-3-3 1.3-3 3 1.4 3 3 3zm0-4.6c.9 0 1.6.7 1.6 1.6s-.7 1.6-1.6 1.6c-.9 0-1.6-.7-1.6-1.6s.8-1.6 1.6-1.6z"></path><path d="M76.2 28.2H25.3c-1.3 0-2.4 1.1-2.4 2.4v44.8c0 1.3 1.1 2.4 2.4 2.4h50.8c1.3 0 2.4-1.1 2.4-2.4V30.6c.1-1.4-1-2.4-2.3-2.4zm1 47.2c0 .6-.5 1-1 1H25.3c-.6 0-1-.5-1-1V30.6c0-.6.5-1 1-1h50.8c.6 0 1 .5 1 1v44.8z"></path><path d="M74.4 40.2H27.1c-.4 0-.7.3-.7.7v32.7c0 .4.3.7.7.7h47.4c.4 0 .7-.3.7-.7V40.9c-.1-.4-.4-.7-.8-.7zM73.7 73h-46V41.6h46V73zM65.4 37.9c1.7 0 3-1.3 3-3s-1.3-3-3-3-3 1.3-3 3 1.3 3 3 3zm0-4.6c.9 0 1.6.7 1.6 1.6s-.7 1.6-1.6 1.6c-.9 0-1.6-.7-1.6-1.6s.7-1.6 1.6-1.6zM72.1 31.9c-1.7 0-3 1.3-3 3s1.3 3 3 3c1.6 0 3-1.3 3-3s-1.3-3-3-3zm0 4.6c-.9 0-1.6-.7-1.6-1.6s.7-1.6 1.6-1.6c.9 0 1.6.7 1.6 1.6s-.7 1.6-1.6 1.6z"></path><path d="M32.2 68.7h9.5c.4 0 .7-.3.7-.7v-5.6c0-.4-.3-.7-.7-.7h-3.2v-2c0-.4-.3-.7-.7-.7s-.7.3-.7.7v2.7c0 .4.3.7.7.7H41v4.2h-8.1v-4.2h3.2c.4 0 .7-.3.7-.7v-5h13.1c.4 0 .7-.3.7-.7V53c0-.4-.3-.7-.7-.7h-3.2v-4.2h8.1v4.2h-3.2c-.4 0-.7.3-.7.7v3.7c0 .4.3.7.7.7h13.1v5c0 .4.3.7.7.7h3.1v4.2h-8.1v-4.2h3.2c.4 0 .7-.3.7-.7v-2.7c0-.4-.3-.7-.7-.7s-.6.3-.6.7v2h-3.2c-.4 0-.7.3-.7.7V68c0 .4.3.7.7.7h9.5c.4 0 .7-.3.7-.7v-5.6c0-.4-.3-.7-.7-.7h-3.1v-5c0-.4-.4-.7-.8-.7H52.3v-2.3h3.2c.4 0 .7-.3.7-.7v-5.6c0-.4-.3-.7-.7-.7H46c-.4 0-.7.3-.7.7V53c0 .4.3.7.7.7h3.2V56H36.1c-.4 0-.7.3-.7.7v5h-3.2c-.4 0-.7.3-.7.7V68c0 .3.4.7.7.7z"></path><path d="M55.5 61.7h-3.2v-2c0-.4-.3-.7-.7-.7s-.7.3-.7.7v2.7c0 .4.3.7.7.7h3.2v4.2h-8.1v-4.2h3.2c.4 0 .7-.3.7-.7v-2.7c0-.4-.3-.7-.7-.7s-.7.3-.7.7v2H46c-.4 0-.7.3-.7.7V68c0 .4.3.7.7.7h9.5c.4 0 .7-.3.7-.7v-5.6c0-.4-.3-.7-.7-.7zM34.6 19.9h2.5c.4 0 .7-.3.7-.7s-.3-.7-.7-.7h-2.5c-.4 0-.7.3-.7.7s.3.7.7.7zM40.9 19.9h2.5c.4 0 .7-.3.7-.7s-.3-.7-.7-.7h-2.5c-.4 0-.7.3-.7.7s.3.7.7.7zM47.3 19.9h2.5c.4 0 .7-.3.7-.7s-.3-.7-.7-.7h-2.5c-.4 0-.7.3-.7.7s.3.7.7.7zM28.2 19.9h2.5c.4 0 .7-.3.7-.7s-.3-.7-.7-.7h-2.5c-.4 0-.7.3-.7.7s.3.7.7.7zM15.6 20.4c.2 0 .4-.1.5-.2.2-.2.4-.3.7-.3H18c.4 0 .7-.3.7-.7s-.3-.7-.7-.7h-1.2c-.6 0-1.2.2-1.7.7-.3.3-.3.7 0 1 .2.2.4.2.5.2zM66.3 19.9h1.4c.2 0 .5.1.6.2.1.1.3.2.4.2.2 0 .4-.1.5-.3.2-.3.2-.7-.1-1-.4-.4-1-.6-1.5-.6h-1.4c-.4 0-.7.3-.7.7s.4.8.8.8zM68.7 23.3v2.5c0 .4.3.7.7.7s.7-.3.7-.7v-2.5c0-.4-.3-.7-.7-.7s-.7.3-.7.7zM15.1 26.6c.4 0 .7-.3.7-.7v-2.5c0-.4-.3-.7-.7-.7s-.7.3-.7.7v2.5c0 .4.3.7.7.7zM53.6 19.9h2.5c.4 0 .7-.3.7-.7s-.3-.7-.7-.7h-2.5c-.4 0-.7.3-.7.7s.3.7.7.7zM60 19.9h2.5c.4 0 .7-.3.7-.7s-.3-.7-.7-.7H60c-.4 0-.7.3-.7.7s.3.7.7.7zM18.8 66.8h-1.9c-.1 0-.2 0-.4-.1-.4-.1-.8 0-.9.4-.1.4 0 .8.4.9.3.1.6.2.8.2h1.9c.4 0 .7-.3.7-.7s-.2-.7-.6-.7zM15.1 58.4c.4 0 .7-.3.7-.7v-2.5c0-.4-.3-.7-.7-.7s-.7.3-.7.7v2.5c0 .4.3.7.7.7zM15.8 64v-2.5c0-.4-.3-.7-.7-.7s-.7.3-.7.7V64c0 .4.3.7.7.7s.7-.3.7-.7zM25.1 19.2c0-.4-.3-.7-.7-.7h-2.5c-.4 0-.7.3-.7.7s.3.7.7.7h2.5c.4 0 .7-.3.7-.7zM15.1 39.3c.4 0 .7-.3.7-.7v-2.5c0-.4-.3-.7-.7-.7s-.7.3-.7.7v2.5c0 .4.3.7.7.7zM15.1 52c.4 0 .7-.3.7-.7v-2.5c0-.4-.3-.7-.7-.7s-.7.3-.7.7v2.5c0 .4.3.7.7.7zM15.1 33c.4 0 .7-.3.7-.7v-2.5c0-.4-.3-.7-.7-.7s-.7.3-.7.7v2.5c0 .4.3.7.7.7zM15.1 45.7c.4 0 .7-.3.7-.7v-2.5c0-.4-.3-.7-.7-.7s-.7.3-.7.7V45c0 .4.3.7.7.7zM27.4 35.6h4.2c.4 0 .7-.3.7-.7s-.3-.7-.7-.7h-4.2c-.4 0-.7.3-.7.7s.3.7.7.7zM34.8 35.6h19.1c.4 0 .7-.3.7-.7s-.3-.7-.7-.7H34.8c-.4 0-.7.3-.7.7s.3.7.7.7z"></path></g><!----></svg>